<svg width="1209" height="989" viewBox="0 0 1209 989" fill="none" xmlns="http://www.w3.org/2000/svg">
<path d="M954.5 898.32V888.336C954.5 886.826 956.11 885.86 957.443 886.572L1114.5 970.5L1205.07 877.524C1206.32 876.238 1208.5 877.125 1208.5 878.919V887.705C1208.5 888.215 1208.3 888.707 1207.95 889.078L1114.5 988L955.532 900.071C954.895 899.718 954.5 899.048 954.5 898.32Z" fill="#675EC9"/>
<path d="M1114.5 988L955.532 900.071C954.895 899.718 954.5 899.048 954.5 898.32V888.336C954.5 886.826 956.11 885.86 957.443 886.572L1114.5 970.5M1114.5 988V970.5M1114.5 988L1207.95 889.078C1208.3 888.707 1208.5 888.215 1208.5 887.705V878.919C1208.5 877.125 1206.32 876.238 1205.07 877.524L1114.5 970.5" stroke="black"/>
<path d="M1051.46 801.694L960.519 880.233C957.861 882.529 958.336 886.778 961.436 888.43L1111.19 968.233C1113.15 969.28 1115.57 968.903 1117.12 967.308L1200.76 881.367C1203.11 878.952 1202.45 874.95 1199.45 873.423L1056.99 801.021C1055.18 800.101 1053 800.367 1051.46 801.694Z" fill="#C6C6C6" stroke="black" stroke-linecap="round"/>
<path d="M1108.5 953C1108.5 954.381 1106.93 955.5 1105 955.5C1103.07 955.5 1096 951.881 1096 950.5C1096 949.119 1097.57 948 1099.5 948C1101.43 948 1108.5 951.619 1108.5 953Z" fill="#575555"/>
<ellipse cx="1091.5" cy="945.5" rx="3.5" ry="2.5" fill="#575555"/>
<ellipse cx="1082.5" cy="940.5" rx="3.5" ry="2.5" fill="#575555"/>
<ellipse cx="1074.5" cy="936.5" rx="2.5" ry="1.5" fill="#575555"/>
<path d="M1040.38 847.429L1029.61 841.596C1027.83 840.63 1025.64 840.837 1024.07 842.118L990.685 869.361C987.954 871.589 988.324 875.868 991.397 877.594L998.186 881.409M1040.38 847.429L998.186 881.409M1040.38 847.429L1053.04 854.286M998.186 881.409L1011.69 889M1053.04 854.286L1011.69 889M1053.04 854.286L1064.64 860.571M1011.69 889L1023.26 895.5M1064.64 860.571L1023.26 895.5M1064.64 860.571L1075.72 866.571M1023.26 895.5L1033.52 901.266M1075.72 866.571L1033.52 901.266M1075.72 866.571L1087.32 872.857M1033.52 901.266L1044.6 907.49M1087.32 872.857L1044.6 907.49M1087.32 872.857L1099.59 879.5M1044.6 907.49L1056.73 914.306M1099.59 879.5L1056.73 914.306M1099.59 879.5L1112.11 886.286M1056.73 914.306L1068.64 921M1112.11 886.286L1068.64 921M1112.11 886.286L1125.3 893.429M1068.64 921L1081.1 928M1125.3 893.429L1081.1 928M1125.3 893.429L1136.37 899.429M1081.1 928L1095.34 936M1136.37 899.429L1095.34 936M1136.37 899.429L1146.13 904.714M1095.34 936L1118.73 948.224C1120.74 949.272 1123.2 948.842 1124.73 947.177L1153.61 915.77C1155.83 913.358 1155.17 909.5 1152.27 907.967L1146.13 904.714M1146.13 904.714L1107.37 941.5" stroke="black" stroke-width="0.5" stroke-linecap="round"/>
<path d="M1000.5 861.5L1135 934.5" stroke="black" stroke-width="0.5" stroke-linecap="round"/>
<path d="M1014 850.5L1146.5 923" stroke="black" stroke-width="0.5" stroke-linecap="round"/>
<ellipse cx="1086" cy="843.5" rx="11" ry="8.5" fill="#6C6C6C"/>
<ellipse cx="1086" cy="840.5" rx="11" ry="8.5" fill="#D9D9D9"/>
<path d="M1086.5 832.5V834.5" stroke="black" stroke-width="0.5" stroke-linecap="round"/>
<path d="M1090.95 833L1090 834.762" stroke="black" stroke-width="0.5" stroke-linecap="round"/>
<path d="M1094.53 836L1093 837.291" stroke="black" stroke-width="0.5" stroke-linecap="round"/>
<path d="M1096 840L1094 840.135" stroke="black" stroke-width="0.5" stroke-linecap="round"/>
<path d="M1094.69 844.792L1093.31 843.343" stroke="black" stroke-width="0.5" stroke-linecap="round"/>
<path d="M1091.73 846.861L1091 845" stroke="black" stroke-width="0.5" stroke-linecap="round"/>
<path d="M1086.1 847.998L1086 846" stroke="black" stroke-width="0.5" stroke-linecap="round"/>
<path d="M1081 846.572L1082.24 845" stroke="black" stroke-width="0.5" stroke-linecap="round"/>
<path d="M1077.67 844.091L1079.57 843.481" stroke="black" stroke-width="0.5" stroke-linecap="round"/>
<path d="M1076 840.064L1078 840" stroke="black" stroke-width="0.5" stroke-linecap="round"/>
<path d="M1077 836L1078.78 836.913" stroke="black" stroke-width="0.5" stroke-linecap="round"/>
<path d="M1081 833L1081.96 834.756" stroke="black" stroke-width="0.5" stroke-linecap="round"/>
<ellipse cx="1057" cy="826.5" rx="11" ry="8.5" fill="#6C6C6C"/>
<ellipse cx="1057" cy="823.5" rx="11" ry="8.5" fill="#D9D9D9"/>
<path d="M1057.5 815.5V817.5" stroke="black" stroke-width="0.5" stroke-linecap="round"/>
<path d="M1061.95 816L1061 817.762" stroke="black" stroke-width="0.5" stroke-linecap="round"/>
<path d="M1065.53 819L1064 820.291" stroke="black" stroke-width="0.5" stroke-linecap="round"/>
<path d="M1067 823L1065 823.135" stroke="black" stroke-width="0.5" stroke-linecap="round"/>
<path d="M1065.69 827.792L1064.31 826.343" stroke="black" stroke-width="0.5" stroke-linecap="round"/>
<path d="M1062.73 829.861L1062 828" stroke="black" stroke-width="0.5" stroke-linecap="round"/>
<path d="M1057.1 830.998L1057 829" stroke="black" stroke-width="0.5" stroke-linecap="round"/>
<path d="M1052 829.572L1053.24 828" stroke="black" stroke-width="0.5" stroke-linecap="round"/>
<path d="M1048.67 827.091L1050.57 826.481" stroke="black" stroke-width="0.5" stroke-linecap="round"/>
<path d="M1047 823.064L1049 823" stroke="black" stroke-width="0.5" stroke-linecap="round"/>
<path d="M1048 819L1049.78 819.913" stroke="black" stroke-width="0.5" stroke-linecap="round"/>
<path d="M1052 816L1052.96 817.756" stroke="black" stroke-width="0.5" stroke-linecap="round"/>
<ellipse cx="1120" cy="860.5" rx="11" ry="8.5" fill="#6C6C6C"/>
<ellipse cx="1120" cy="857.5" rx="11" ry="8.5" fill="#D9D9D9"/>
<path d="M1162.7 876.475C1163.01 881.159 1158.35 885.281 1152.28 885.681C1146.22 886.08 1136.87 879.877 1136.56 875.193C1136.25 870.508 1140.91 866.387 1146.98 865.987C1153.04 865.587 1162.39 871.791 1162.7 876.475Z" fill="#6C6C6C"/>
<path d="M1162.07 873.641C1162.38 878.325 1157.72 882.447 1151.65 882.847C1145.59 883.246 1136.24 877.043 1135.93 872.359C1135.62 867.675 1140.28 863.553 1146.35 863.153C1152.41 862.753 1161.76 868.957 1162.07 873.641Z" fill="#D9D9D9"/>
<path d="M1088.5 936.087V944.901C1088.5 944.967 1088.51 945.034 1088.52 945.098C1089.01 947.314 1090.83 947.715 1093.72 947.165C1094.18 947.078 1094.5 946.67 1094.5 946.204V936.42C1094.5 935.9 1094.1 935.467 1093.58 935.424L1089.58 935.09C1089 935.042 1088.5 935.502 1088.5 936.087Z" fill="white" stroke="black" stroke-width="0.6"/>
<path d="M1089 944L1092.5 945" stroke="#988DCF" stroke-width="0.6"/>
<path d="M1089 942L1092.5 943" stroke="#988DCF" stroke-width="0.6"/>
<path d="M1089 940L1092.5 941" stroke="#988DCF" stroke-width="0.6"/>
<ellipse cx="1091.5" cy="935.5" rx="3.5" ry="2.5" fill="#575555"/>
<path d="M936.5 601L926.858 615.464C926.131 616.554 924.621 616.778 923.609 615.946L920.521 613.41C919.044 612.197 917.031 614.045 918.114 615.62V615.62C919.122 617.087 917.413 618.891 915.893 617.963L911.723 615.414C910.016 614.371 908.086 616.379 909.196 618.044L910.465 619.948C911.402 621.353 909.651 622.987 908.314 621.956L907.724 621.501C906.4 620.48 904.718 622.211 905.777 623.505V623.505C906.794 624.748 905.269 626.45 903.922 625.575L900.104 623.093C898.178 621.841 895.918 624.127 897.193 626.039L897.978 627.217C899.29 629.185 896.886 631.501 894.969 630.116V630.116C893.093 628.762 890.711 630.958 891.909 632.937L892.645 634.152C893.775 636.019 891.476 638.058 889.737 636.74V636.74C888.006 635.429 885.718 637.459 886.844 639.317L887.224 639.945C888.23 641.604 886.272 643.468 884.664 642.381V642.381C882.906 641.193 880.892 643.48 882.293 645.074L882.492 645.301C883.769 646.755 882.235 648.945 880.432 648.242L877.682 647.168C875.758 646.418 874.276 648.953 875.874 650.261V650.261C877.433 651.536 876.063 654.021 874.153 653.384L872.323 652.774C870.64 652.213 869.495 654.47 870.941 655.497V655.497C872.431 656.556 871.17 658.868 869.473 658.189L864.876 656.35C863.258 655.703 861.968 657.805 863.277 658.955L864.29 659.846C865.524 660.931 864.184 662.882 862.728 662.12V662.12C861.265 661.353 859.926 663.325 861.177 664.403L863.063 666.026C864.078 666.901 863.01 668.505 861.812 667.906V667.906C860.551 667.276 859.496 669.047 860.651 669.855L864.788 672.751C865.92 673.544 865.481 675.315 864.109 675.486L850.418 677.198C848.892 677.389 847.498 678.354 846.672 679.652C804.456 746.018 749.067 639.629 769.805 777.71C769.926 778.514 770.253 779.342 770.737 779.996L786.029 800.686C786.64 801.512 787.606 802 788.634 802H796.411C797.648 802 798.078 803.643 797 804.25L796.904 804.304C795.852 804.896 796.272 806.5 797.48 806.5V806.5C798.607 806.5 799.086 807.936 798.184 808.612L797 809.5C795.719 810.461 796.398 812.5 798 812.5H799.783C801.211 812.5 801.96 814.194 801 815.25V815.25C800.04 816.306 800.789 818 802.217 818H806.038C807.751 818 808.545 820.128 807.25 821.25L806.969 821.494C805.771 822.532 806.505 824.5 808.09 824.5V824.5C809.396 824.5 810.221 825.903 809.587 827.044L806.654 832.322C805.913 833.656 807.508 835.061 808.738 834.159V834.159C809.677 833.47 811 834.141 811 835.305V838.874C811 840.21 812.489 841.007 813.601 840.266V840.266C814.847 839.436 816.472 840.534 816.167 841.999L815.407 845.644C815.128 846.986 816.742 847.89 817.74 846.951V846.951C818.862 845.894 820.619 847.159 819.973 848.558L818.966 850.741C818.258 852.274 819.787 853.885 821.355 853.258L826.434 851.227C827.533 850.787 828.604 851.919 828.103 852.993V852.993C827.535 854.211 828.954 855.39 830.047 854.609L832.361 852.956C833.778 851.944 835.689 853.245 835.266 854.935L834.9 856.4C834.528 857.889 836.384 858.895 837.428 857.77V857.77C838.346 856.781 840 857.431 840 858.78V860M840 865V860M840 860L841.949 866.172C842.372 867.511 844.157 867.765 844.936 866.596V866.596C845.854 865.219 848 865.869 848 867.524V873.265C848 874.869 849.916 875.697 851.084 874.598V874.598C852.476 873.287 854.693 874.721 854.067 876.529L853.942 876.89C853.332 878.653 855.335 880.165 856.863 879.096L862.322 875.275C863.792 874.246 865.719 875.701 865.132 877.396L864.498 879.227C864.01 880.637 865.765 881.735 866.82 880.681V880.681C867.794 879.707 869.442 880.57 869.195 881.925L868.809 884.051C868.59 885.255 870.112 885.966 870.895 885.026V885.026C871.608 884.171 873 884.675 873 885.788V889.109C873 891.183 875.46 892.275 876.998 890.883L879.372 888.735C880.671 887.56 882.714 888.733 882.353 890.447V890.447C882.028 891.991 883.699 893.181 885.052 892.369L887.427 890.944C889.22 889.868 891.5 891.16 891.5 893.25V893.25M891.5 898V893.25M891.5 893.25L895.548 896.208C897.009 897.275 898.992 897.275 900.452 896.208L902.429 894.763C903.505 893.977 905.03 894.363 905.603 895.566V895.566C906.262 896.95 908.125 897.202 909.128 896.044L909.733 895.346C911.24 893.607 914.091 894.399 914.485 896.666L914.84 898.704C915.165 900.575 917.224 901.58 918.899 900.687V900.687C920.757 899.696 923 901.042 923 903.147V906.612C923 908.355 925.032 909.307 926.371 908.191V908.191C927.562 907.198 929.382 907.832 929.698 909.351L930.693 914.125C931.022 915.707 933.024 916.222 934.076 914.995L935.094 913.807C935.92 912.843 937.5 913.428 937.5 914.698V914.698C937.5 915.916 938.973 916.527 939.835 915.665L941 914.5C942.292 913.208 944.5 914.123 944.5 915.95V918.508C944.5 920.925 947.137 922.418 949.21 921.174L951.35 919.89C952.736 919.058 954.5 920.057 954.5 921.674V921.674C954.5 923.499 956.682 924.439 958.009 923.186L960.282 921.039C961.499 919.89 963.5 920.753 963.5 922.426V923.031C963.5 924.409 965.107 925.161 966.165 924.279V924.279C967.319 923.318 969.048 924.303 968.809 925.786L968.409 928.266C968 930.802 971.159 932.298 972.862 930.374L974.339 928.704C975.79 927.063 978.5 928.09 978.5 930.28V931.308C978.5 933.207 980.887 934.052 982.081 932.576V932.576C983.391 930.958 985.996 932.147 985.632 934.197L984.554 940.261C984.147 942.549 987.067 943.863 988.51 942.041V942.041C989.825 940.378 992.5 941.309 992.5 943.429V943.92C992.5 945.951 994.86 947.069 996.432 945.783L998.26 944.287C1000.35 942.573 1003.5 944.064 1003.5 946.77V948.039C1003.5 950.333 1006.22 951.539 1007.92 950.001L1010.35 947.8C1011.5 946.766 1013.29 947.803 1012.97 949.309L1012.81 950.071C1012.46 951.675 1014.62 952.533 1015.47 951.131V951.131C1016.31 949.754 1018.43 950.553 1018.15 952.14L1017.55 955.569C1017.22 957.397 1019.46 958.541 1020.77 957.229V957.229C1021.96 956.041 1024 956.873 1024 958.553V958.553C1024 959.929 1025.43 960.842 1026.68 960.265L1027.25 960C1028.77 959.3 1030.5 960.408 1030.5 962.079V963.925C1030.5 965.757 1032.74 966.652 1034 965.325V965.325C1035.51 963.742 1038.23 965.375 1037.63 967.477C1036.15 972.696 1035.25 977.251 1037 976C1038.96 974.598 1042.02 972.459 1044.42 970.788C1046 969.693 1046.79 967.75 1046.56 965.845C1040.45 914.339 1091.5 923.235 1091.5 935" stroke="black" stroke-width="6" stroke-linecap="round"/>
<path d="M125 697.889V688.081C125 686.516 126.716 685.557 128.049 686.378L588.5 970L783.308 825.37C784.628 824.39 786.5 825.332 786.5 826.976V836.506C786.5 837.132 786.207 837.722 785.708 838.1L588.5 987.5L125.943 699.587C125.357 699.222 125 698.58 125 697.889Z" fill="#675EC9"/>
<path d="M588.5 987.5L125.943 699.587C125.357 699.222 125 698.58 125 697.889V688.081C125 686.516 126.716 685.557 128.049 686.378L588.5 970M588.5 987.5V970M588.5 987.5L785.708 838.1C786.207 837.722 786.5 837.132 786.5 836.506V826.976C786.5 825.332 784.627 824.39 783.308 825.37L588.5 970" stroke="black"/>
<path d="M323.572 552.622L368.5 578.718L411.5 603.693L452.5 627.506L492.5 650.739L530 672.52L568.5 694.881L606.5 716.953L646.5 740.185L687 763.709L736.75 792.604L783.885 819.981C785.124 820.701 785.226 822.453 784.078 823.312L741.325 855.295L691.592 892.5L652.5 921.744L617.5 947.927L591.09 967.685C590.432 968.177 589.541 968.217 588.842 967.786L530 931.492L478.5 899.728L438.5 875.056L399.5 851.001L363 828.488L326.5 805.975L288 782.229L249.5 758.482L209.5 733.811L168.5 708.522L128.168 683.645C126.923 682.878 126.896 681.079 128.116 680.274L159.75 659.398L194 636.797L238.5 607.431L282.012 578.718L321.466 552.683C322.099 552.264 322.915 552.241 323.572 552.622Z" fill="#D0C6FF"/>
<path d="M368.5 578.718L323.572 552.622C322.915 552.241 322.099 552.264 321.466 552.683L282.012 578.718M368.5 578.718L168.5 708.522M368.5 578.718L411.5 603.693M168.5 708.522L128.168 683.645C126.923 682.878 126.896 681.079 128.116 680.274L159.75 659.398M168.5 708.522L209.5 733.811M411.5 603.693L209.5 733.811M411.5 603.693L452.5 627.506M209.5 733.811L249.5 758.482M452.5 627.506L249.5 758.482M452.5 627.506L492.5 650.739M249.5 758.482L288 782.229M492.5 650.739L288 782.229M492.5 650.739L530 672.52M288 782.229L326.5 805.975M530 672.52L326.5 805.975M530 672.52L568.5 694.881M326.5 805.975L363 828.488M568.5 694.881L363 828.488M568.5 694.881L606.5 716.953M363 828.488L399.5 851.001M606.5 716.953L399.5 851.001M606.5 716.953L646.5 740.185M399.5 851.001L438.5 875.056M646.5 740.185L438.5 875.056M646.5 740.185L687 763.709M438.5 875.056L478.5 899.728M687 763.709L478.5 899.728M687 763.709L736.75 792.604M478.5 899.728L530 931.492M736.75 792.604L783.885 819.981C785.124 820.701 785.226 822.453 784.078 823.312L741.325 855.295M736.75 792.604L530 931.492M530 931.492L588.842 967.786C589.541 968.217 590.432 968.177 591.09 967.685L617.5 947.927M282.012 578.718L741.325 855.295M282.012 578.718L238.5 607.431M741.325 855.295L691.592 892.5M238.5 607.431L691.592 892.5M238.5 607.431L194 636.797M691.592 892.5L652.5 921.744M194 636.797L652.5 921.744M194 636.797L159.75 659.398M652.5 921.744L617.5 947.927M159.75 659.398L617.5 947.927" stroke="black"/>
<rect x="292.696" y="744.513" width="189.742" height="34.0382" transform="rotate(32.0967 292.696 744.513)" fill="#D0C6FF"/>
<path d="M118 610L2.45975 540.873C1.5543 540.332 1 539.354 1 538.299V532.369C1 530.022 3.57348 528.584 5.57229 529.814L118 599L350.377 449.475C352.373 448.19 355 449.624 355 451.998V455.863C355 456.883 354.481 457.834 353.623 458.386L118 610Z" fill="#D0C6FF"/>
<path d="M118 610L2.45975 540.873C1.5543 540.332 1 539.354 1 538.299V532.369C1 530.022 3.57348 528.584 5.57229 529.814L118 599M118 610V599M118 610L353.623 458.386C354.481 457.834 355 456.883 355 455.863V451.998C355 449.624 352.373 448.19 350.377 449.475L118 599" stroke="black"/>
<path d="M310 481L323 472.5" stroke="black" stroke-width="3" stroke-linecap="round"/>
<path d="M280 500.5L293 492" stroke="black" stroke-width="3" stroke-linecap="round"/>
<path d="M262 512.5L275 504" stroke="black" stroke-width="3" stroke-linecap="round"/>
<path d="M238.473 384.428L7.20999 524.942C5.28933 526.109 5.28648 528.896 7.20477 530.067L116.908 597.028C117.883 597.623 119.111 597.613 120.076 597.002L348.834 452.138C350.734 450.935 350.684 448.147 348.742 447.013L241.543 384.401C240.592 383.846 239.414 383.856 238.473 384.428Z" fill="#1E1E1E" stroke="black"/>
<path d="M431.5 613L437.189 593.562C437.394 592.862 437.434 592.068 437.326 591.347C416.53 453.059 471.942 559.54 514.172 493.152C514.998 491.854 516.392 490.889 517.918 490.698L531.609 488.986C532.981 488.815 533.42 487.044 532.288 486.251L528.15 483.355C526.996 482.547 528.051 480.776 529.312 481.406V481.406C530.51 482.005 531.578 480.401 530.563 479.526L528.677 477.903C527.426 476.825 528.765 474.853 530.228 475.62V475.62C531.684 476.382 533.024 474.431 531.79 473.346L530.776 472.455C529.468 471.305 530.758 469.203 532.376 469.85L536.973 471.689C538.67 472.368 539.931 470.056 538.441 468.997V468.997C536.995 467.97 538.14 465.713 539.823 466.274L541.653 466.884C543.563 467.521 544.933 465.036 543.374 463.761V463.761C541.776 462.453 543.258 459.918 545.182 460.668L547.932 461.742C549.735 462.445 551.269 460.255 549.991 458.801L549.793 458.574C548.392 456.98 550.406 454.693 552.164 455.881V455.881C553.772 456.968 555.73 455.104 554.724 453.445L554.344 452.817C553.218 450.959 555.506 448.929 557.237 450.24V450.24C558.976 451.558 561.275 449.519 560.145 447.652L559.409 446.437C558.211 444.458 560.593 442.262 562.469 443.616V443.616C564.386 445.001 566.79 442.685 565.478 440.717L564.693 439.539C563.418 437.627 565.678 435.341 567.604 436.593L571.422 439.075C572.769 439.95 574.294 438.248 573.277 437.005V437.005C572.218 435.711 573.9 433.98 575.224 435.001L575.814 435.456C577.15 436.487 578.902 434.853 577.965 433.448L576.696 431.544C575.586 429.879 577.516 427.871 579.223 428.914L583.393 431.463C584.913 432.391 586.622 430.587 585.614 429.12V429.12C584.531 427.545 586.544 425.697 588.021 426.91L591.109 429.446C592.121 430.278 593.631 430.054 594.358 428.964L604 414.5" stroke="black" stroke-width="4" stroke-linecap="round"/>
<path d="M429.801 598.183L424.003 606.126C422.939 607.584 423.394 609.644 424.972 610.519L430.853 613.78C432.125 614.486 433.721 614.177 434.637 613.047L440.79 605.465C441.951 604.035 441.561 601.906 439.968 600.98L433.732 597.358C432.403 596.586 430.707 596.942 429.801 598.183Z" fill="#D9D9D9"/>
<path d="M429 600L441 606" stroke="black" stroke-width="0.6"/>
<path d="M427.548 599.275L442.103 605.483C442.48 605.644 442.915 605.559 443.204 605.27L445.961 602.503C446.453 602.01 446.302 601.177 445.667 600.888L431.165 594.274C430.765 594.091 430.293 594.192 430.001 594.521L427.192 597.692C426.739 598.203 426.92 599.007 427.548 599.275Z" fill="#D9D9D9"/>
<path d="M430.5 599.5L433 596.5" stroke="black" stroke-width="0.6"/>
<path d="M434 601L436.5 598" stroke="black" stroke-width="0.6"/>
<path d="M437 602L439.5 599" stroke="black" stroke-width="0.6"/>
<path d="M440 604L442.5 601" stroke="black" stroke-width="0.6"/>
<path d="M577.5 516.5C575.181 524.37 579.001 532.584 584.48 540.278C584.822 540.757 585.264 541.176 585.753 541.503C642.898 579.669 664.948 590.459 715.74 621.724C716.552 622.224 717.508 622.492 718.46 622.476C733.81 622.216 737.897 621.734 751 618C764.509 614.151 775.641 588.905 779 583C782.359 577.095 829.993 545.21 831.5 546.5" stroke="white" stroke-width="3" stroke-linecap="round"/>
<path d="M716.734 415.671C706.131 426.84 679.79 440.876 668.584 446.573C666.415 447.676 666.345 450.784 668.472 451.965L831.979 542.702C833.166 543.361 834.648 543.141 835.592 542.165L861.202 515.679C861.576 515.292 862.051 515.013 862.569 514.869C878.013 510.604 887.559 507.05 905.432 499.013C915.465 492.909 921.628 491.028 923.573 478.15C923.618 477.85 923.613 477.531 923.566 477.231C921.954 467.082 923.615 463.785 912.379 453.078C901.439 442.653 793.459 378.821 784.712 373.658C784.3 373.414 783.896 373.311 783.418 373.286C770.287 372.607 762.436 373.743 748.587 377.832C748.269 377.925 747.959 378.077 747.691 378.271C731.327 390.1 730.262 401.422 716.734 415.671Z" fill="#D9D9D9" stroke="black" stroke-linecap="round"/>
<path d="M783.5 577C793.994 565.729 820.197 551.437 831.347 545.63C833.505 544.506 833.545 541.398 831.406 540.238L667.023 451.097C665.83 450.45 664.35 450.685 663.416 451.67L638.065 478.404C637.695 478.794 637.223 479.079 636.706 479.227C621.304 483.642 611.794 487.289 594 495.5C584.027 501.702 577.882 503.642 576.063 516.538C576.02 516.839 576.028 517.158 576.079 517.457C577.789 527.59 576.161 530.903 587.5 541.5C598.541 551.818 707.138 614.595 715.934 619.674C716.349 619.913 716.754 620.012 717.233 620.032C730.369 620.584 738.208 619.371 752.018 615.148C752.334 615.051 752.643 614.897 752.909 614.7C769.157 602.712 770.111 591.38 783.5 577Z" fill="#D9D9D9" stroke="black" stroke-linecap="round"/>
<ellipse cx="743.032" cy="482.46" rx="44.0482" ry="31.0595" transform="rotate(5.95274 743.032 482.46)" fill="black" fill-opacity="0.2"/>
<path d="M1053 664L401.469 300.819C400.557 300.31 399.974 299.363 399.932 298.319L388.126 5.6209C388.057 3.918 389.419 2.5 391.123 2.5H428H594H654H675.258C675.745 2.5 676.225 2.61887 676.657 2.84632L1079 215L1072.03 654.943C1072.01 656.183 1071.23 657.283 1070.07 657.711L1053 664Z" fill="#988DCF"/>
<path d="M1053 664L401.469 300.819C400.557 300.31 399.974 299.363 399.932 298.319L388.126 5.6209C388.057 3.918 389.419 2.5 391.123 2.5H428M1053 664L1070.07 657.711C1071.23 657.283 1072.01 656.183 1072.03 654.943L1079 215M1053 664L1060 227M1079 215L676.657 2.84632C676.225 2.61887 675.745 2.5 675.258 2.5H654M1079 215L1060 227M1060 227L654 2.5M654 2.5H594M428 2.5L436.939 248.31C436.977 249.359 437.56 250.312 438.477 250.822L1023.76 576.64C1025.71 577.725 1028.12 576.381 1028.22 574.154L1042.92 246.88C1042.97 245.73 1042.36 244.653 1041.34 244.106L594 2.5M428 2.5H594" stroke="black" stroke-linecap="round"/>
<path d="M745.549 420.54L713.549 402.856C712.593 402.328 712 401.322 712 400.23V98.7612C712 97.6738 711.412 96.6716 710.462 96.1416L550.068 6.61959C547.368 5.11244 548.438 1 551.531 1H591.221C591.732 1 592.234 1.13049 592.681 1.3791L748.46 88.1421C749.411 88.6717 750 89.6747 750 90.763V417.914C750 420.199 747.548 421.645 745.549 420.54Z" fill="#F4FFFF" stroke="black" stroke-linecap="round"/>
<path d="M712 99.7662V397.875C712 400.168 709.531 401.613 707.531 400.49L437.474 248.828C436.559 248.314 435.979 247.359 435.945 246.31L428.101 5.09751C428.046 3.40333 429.404 2 431.099 2H538.223C538.733 2 539.234 2.12968 539.679 2.37681L710.456 97.143C711.409 97.6719 712 98.6762 712 99.7662Z" fill="#DFF1F0" stroke="black" stroke-linecap="round"/>
<path d="M475.873 3.37416L709.514 133.175C710.181 133.545 711 133.063 711 132.3V98.0904C711 97.7262 710.802 97.3907 710.483 97.2148L537.226 1.62442C537.078 1.54281 536.911 1.5 536.742 1.5H476.359C475.327 1.5 474.971 2.87304 475.873 3.37416Z" stroke="black" stroke-linecap="round"/>
<path d="M701.5 105.452V110.031C701.5 113.837 697.417 116.247 694.085 114.409L675.085 103.926C673.49 103.046 672.5 101.369 672.5 99.5481V94.9691C672.5 91.1632 676.583 88.7527 679.915 90.5912L698.915 101.074C700.51 101.954 701.5 103.631 701.5 105.452Z" fill="#C8C4F0" fill-opacity="0.5" stroke="black" stroke-linecap="round"/>
<path d="M669.5 88.9519V93.5309C669.5 97.3368 665.417 99.7473 662.085 97.9088L657.585 95.426C655.99 94.5463 655 92.8692 655 91.0481V86.4691C655 82.6632 659.083 80.2527 662.415 82.0913L666.915 84.574C668.51 85.4537 669.5 87.1308 669.5 88.9519Z" fill="#C8C4F0" fill-opacity="0.5" stroke="black" stroke-linecap="round"/>
<path d="M651.5 78.9519V83.5309C651.5 87.3368 647.417 89.7473 644.085 87.9088L639.585 85.426C637.99 84.5463 637 82.8692 637 81.0481V76.4691C637 72.6632 641.083 70.2527 644.415 72.0913L648.915 74.574C650.51 75.4537 651.5 77.1308 651.5 78.9519Z" fill="#C8C4F0" fill-opacity="0.5" stroke="black" stroke-linecap="round"/>
<path d="M750 93.0355V422.227C750 423.321 750.595 424.328 751.554 424.855L1023.73 574.651C1025.69 575.728 1028.1 574.364 1028.18 572.131L1039.93 246.86C1039.97 245.721 1039.37 244.657 1038.36 244.114L754.428 90.3974C752.429 89.3152 750 90.7625 750 93.0355Z" fill="#C8C4F0" stroke="black" stroke-linecap="round"/>
<path d="M823.5 456.308V132.061C823.5 130.182 822.447 128.462 820.774 127.608L760.274 96.7143C756.947 95.0155 753 97.4319 753 101.167V421.124C753 422.904 753.947 424.551 755.486 425.446L815.986 460.63C819.32 462.569 823.5 460.164 823.5 456.308Z" fill="#A29FC5" stroke="black" stroke-linecap="round"/>
<ellipse cx="918.005" cy="304.775" rx="67.4074" ry="47" transform="rotate(38.5739 918.005 304.775)" fill="#D9D9D9"/>
<path d="M764 152L811 175" stroke="white" stroke-width="3" stroke-linecap="round"/>
<path d="M764 175L811 198" stroke="white" stroke-width="3" stroke-linecap="round"/>
<path d="M764 194L811 217" stroke="white" stroke-width="3" stroke-linecap="round"/>
<path d="M819.5 136.134V150.522C819.5 154.212 815.641 156.631 812.32 155.022L758.32 128.866C756.596 128.031 755.5 126.283 755.5 124.366V109.978C755.5 106.288 759.359 103.869 762.68 105.478L816.68 131.634C818.404 132.469 819.5 134.217 819.5 136.134Z" fill="black" fill-opacity="0.2" stroke="black" stroke-linecap="round"/>
<path d="M815.5 137.129V144.143C815.5 147.803 811.698 150.222 808.382 148.672L762.882 127.401C761.124 126.578 760 124.813 760 122.871V115.857C760 112.197 763.802 109.778 767.118 111.328L812.618 132.599C814.376 133.422 815.5 135.187 815.5 137.129Z" fill="black" fill-opacity="0.2" stroke="black" stroke-linecap="round"/>
</svg>
